<svg width="800" height="420" viewBox="0 0 800 420" fill="none" xmlns="http://www.w3.org/2000/svg">
  <rect width="800" height="420" fill="#faf9f4"/>
  <!-- registration crosses -->
  <path d="M0 6h12M6 0v12" stroke="#8a8578" stroke-width="1"/>
  <path d="M788 6h12M794 0v12" stroke="#8a8578" stroke-width="1"/>
  <path d="M0 414h12M6 408v12" stroke="#8a8578" stroke-width="1"/>
  <path d="M788 414h12M794 408v12" stroke="#8a8578" stroke-width="1"/>
  <!-- label -->
  <text x="20" y="24" font-family="'IBM Plex Mono', monospace" font-size="11" letter-spacing="0.08em" fill="#8a8578">FIG. 1 · ARCHITECTURE</text>
  <!-- Sources column -->
  <text x="40" y="66" font-family="'IBM Plex Mono', monospace" font-size="10" letter-spacing="0.06em" fill="#555">SOURCES</text>
  <rect x="40" y="78" width="140" height="34" fill="#f3f1ec" stroke="#d8d4cb" stroke-width="1"/>
  <text x="110" y="99" font-family="'IBM Plex Mono', monospace" font-size="10" letter-spacing="0.03em" fill="#555" text-anchor="middle">REPOSITORIES</text>
  <rect x="40" y="118" width="140" height="34" fill="#f3f1ec" stroke="#d8d4cb" stroke-width="1"/>
  <text x="110" y="139" font-family="'IBM Plex Mono', monospace" font-size="10" letter-spacing="0.03em" fill="#555" text-anchor="middle">PULL REQUESTS</text>
  <rect x="40" y="158" width="140" height="34" fill="#f3f1ec" stroke="#d8d4cb" stroke-width="1"/>
  <text x="110" y="179" font-family="'IBM Plex Mono', monospace" font-size="10" letter-spacing="0.03em" fill="#555" text-anchor="middle">DOCUMENTS</rect>
  <rect x="40" y="198" width="140" height="34" fill="#f3f1ec" stroke="#d8d4cb" stroke-width="1"/>
  <text x="110" y="219" font-family="'IBM Plex Mono', monospace" font-size="10" letter-spacing="0.03em" fill="#555" text-anchor="middle">SLACK</text>
  <rect x="40" y="238" width="140" height="34" fill="#f3f1ec" stroke="#d8d4cb" stroke-width="1"/>
  <text x="110" y="259" font-family="'IBM Plex Mono', monospace" font-size="10" letter-spacing="0.03em" fill="#555" text-anchor="middle">LINEAR</text>
  <!-- arrows from sources to index -->
  <path d="M180 95 L220 95 L220 130 L245 130" stroke="#d8d4cb" stroke-width="1" fill="none"/>
  <path d="M180 135 L220 135 L220 130 L245 130" stroke="#d8d4cb" stroke-width="1" fill="none"/>
  <path d="M180 175 L220 175 L220 130 L245 130" stroke="#d8d4cb" stroke-width="1" fill="none"/>
  <path d="M180 215 L220 215 L220 130 L245 130" stroke="#d8d4cb" stroke-width="1" fill="none"/>
  <path d="M180 255 L220 255 L220 130 L245 130" stroke="#d8d4cb" stroke-width="1" fill="none"/>
  <!-- Index block -->
  <rect x="255" y="96" width="160" height="68" fill="#111" stroke="#111" stroke-width="1"/>
  <text x="335" y="126" font-family="'IBM Plex Mono', monospace" font-size="12" letter-spacing="0.08em" fill="#fff" text-anchor="middle">INDEX</text>
  <text x="335" y="146" font-family="'IBM Plex Mono', monospace" font-size="9" fill="rgba(255,255,255,0.5)" text-anchor="middle">CHUNK · EMBED · STORE</text>
  <!-- arrow index to graph -->
  <path d="M415 130 L450 130 L450 130 L475 130" stroke="#d8d4cb" stroke-width="1" fill="none"/>
  <!-- Knowledge Graph -->
  <rect x="485" y="86" width="180" height="88" fill="#faf9f4" stroke="#111" stroke-width="1"/>
  <rect x="485" y="86" width="180" height="24" fill="#111"/>
  <text x="575" y="101" font-family="'IBM Plex Mono', monospace" font-size="9" letter-spacing="0.04em" fill="#fff" text-anchor="middle">KNOWLEDGE GRAPH</text>
  <text x="575" y="125" font-family="'IBM Plex Mono', monospace" font-size="9" fill="#555" text-anchor="middle">Bi-temporal facts</text>
  <text x="575" y="142" font-family="'IBM Plex Mono', monospace" font-size="9" fill="#555" text-anchor="middle">Entity resolution</text>
  <text x="575" y="159" font-family="'IBM Plex Mono', monospace" font-size="9" fill="#555" text-anchor="middle">Community detection</text>
  <!-- arrow graph to applications -->
  <path d="M665 130 L700 130 L700 310 L715 310" stroke="#d8d4cb" stroke-width="1" fill="none"/>
  <!-- Applications column -->
  <text x="720" y="290" font-family="'IBM Plex Mono', monospace" font-size="10" letter-spacing="0.06em" fill="#555">APPLICATIONS</text>
  <rect x="720" y="302" width="60" height="34" fill="#d72638" stroke="#d72638" stroke-width="1"/>
  <text x="750" y="323" font-family="'IBM Plex Mono', monospace" font-size="9" letter-spacing="0.03em" fill="#fff" text-anchor="middle">SEARCH</text>
  <rect x="720" y="342" width="60" height="34" fill="#d72638" stroke="#d72638" stroke-width="1"/>
  <text x="750" y="363" font-family="'IBM Plex Mono', monospace" font-size="9" letter-spacing="0.03em" fill="#fff" text-anchor="middle">AGENTS</text>
  <!-- Broadcast Pipeline below -->
  <rect x="40" y="310" width="640" height="68" fill="#f3f1ec" stroke="#d8d4cb" stroke-width="1"/>
  <text x="52" y="334" font-family="'IBM Plex Mono', monospace" font-size="10" letter-spacing="0.06em" fill="#555">BROADCAST PIPELINE</text>
  <rect x="52" y="342" width="120" height="24" fill="#faf9f4" stroke="#d8d4cb" stroke-width="1"/>
  <text x="112" y="358" font-family="'IBM Plex Mono', monospace" font-size="9" fill="#555" text-anchor="middle">Context retrieval</text>
  <path d="M172 354 L190 354" stroke="#d8d4cb" stroke-width="1"/>
  <rect x="192" y="342" width="120" height="24" fill="#faf9f4" stroke="#d8d4cb" stroke-width="1"/>
  <text x="252" y="358" font-family="'IBM Plex Mono', monospace" font-size="9" fill="#555" text-anchor="middle">LLM generation</text>
  <path d="M312 354 L330 354" stroke="#d8d4cb" stroke-width="1"/>
  <rect x="332" y="342" width="120" height="24" fill="#faf9f4" stroke="#d8d4cb" stroke-width="1"/>
  <text x="392" y="358" font-family="'IBM Plex Mono', monospace" font-size="9" fill="#555" text-anchor="middle">Format output</text>
  <path d="M452 354 L470 354" stroke="#d8d4cb" stroke-width="1"/>
  <rect x="472" y="342" width="120" height="24" fill="#faf9f4" stroke="#d8d4cb" stroke-width="1"/>
  <text x="532" y="358" font-family="'IBM Plex Mono', monospace" font-size="9" fill="#555" text-anchor="middle">Publish</text>
  <!-- arrow from pipeline to applications -->
  <path d="M680 354 L720 354" stroke="#d8d4cb" stroke-width="1"/>
</svg>
